<?xml version="1.0" standalone="no"?>
<!DOCTYPE svg PUBLIC "-//W3C//DTD SVG 20010904//EN"
 "http://www.w3.org/TR/2001/REC-SVG-20010904/DTD/svg10.dtd">
<svg version="1.0" xmlns="http://www.w3.org/2000/svg"
 width="512.000000pt" height="512.000000pt" viewBox="0 0 512.000000 512.000000"
 preserveAspectRatio="xMidYMid meet">
<metadata>
Created by potrace 1.14, written by Peter Selinger 2001-2017
</metadata>
<g transform="translate(0.000000,512.000000) scale(0.100000,-0.100000)"
fill="#000000" stroke="none">
<path d="M0 2560 l0 -2560 2560 0 2560 0 0 2560 0 2560 -2560 0 -2560 0 0
-2560z m3280 1905 c41 -9 83 -20 92 -26 10 -5 26 -9 37 -9 11 0 32 -6 48 -14
31 -15 130 -60 153 -70 58 -26 159 -100 231 -171 71 -70 183 -225 220 -305 9
-19 28 -60 43 -90 33 -71 56 -139 56 -168 0 -13 6 -35 14 -50 41 -83 41 -531
0 -614 -8 -15 -14 -37 -14 -50 0 -29 -23 -97 -56 -168 -15 -30 -34 -71 -43
-90 -36 -78 -149 -237 -214 -301 -72 -71 -223 -179 -249 -179 -9 0 -21 -7 -28
-15 -7 -8 -19 -15 -26 -15 -8 0 -22 -4 -32 -9 -42 -23 -86 -41 -101 -41 -8 0
-33 -6 -56 -14 -107 -38 -175 -41 -816 -41 -473 0 -629 3 -640 12 -12 9 -23 9
-54 -2 -32 -11 -116 -14 -395 -14 -195 -1 -373 2 -394 6 -53 8 -116 73 -135
136 -17 59 0 124 44 172 45 49 93 65 196 65 l89 0 0 855 0 855 -76 0 c-142 0
-227 50 -252 148 -18 67 0 123 55 179 l42 43 1093 0 c951 0 1103 -2 1168 -15z
m425 -3745 l0 -75 -1160 0 -1160 0 -3 64 c-2 35 -1 70 2 77 5 12 195 14 1163
12 l1158 -3 0 -75z"/>
<path d="M1805 4120 c-11 -5 -55 -9 -97 -9 l-78 -1 0 -855 0 -855 89 0 c53 0
102 -6 122 -14 27 -12 37 -12 65 0 21 9 70 14 129 14 l95 0 -2 853 -3 852
-105 7 c-58 4 -125 9 -150 12 -25 3 -54 1 -65 -4z"/>
<path d="M2517 4103 c-4 -3 -7 -388 -7 -855 l0 -848 298 0 c180 0 313 5 337
11 22 6 57 13 78 16 20 3 40 9 43 14 3 5 14 9 26 9 11 0 32 6 46 14 15 8 49
24 75 37 27 12 69 39 93 60 24 20 51 43 61 51 39 29 163 194 163 217 0 5 7 14
15 21 8 7 15 22 15 34 0 12 4 26 9 31 13 15 32 74 42 125 30 172 32 200 20
288 -26 186 -27 192 -62 272 -29 67 -45 98 -66 126 -13 17 -23 36 -23 42 0 6
-42 53 -93 104 -77 78 -107 101 -178 134 -136 66 -183 79 -329 94 -102 10
-554 13 -563 3z"/>
</g>
</svg>
